<mxfile host="Electron" modified="2024-07-11T19:49:12.374Z" agent="Mozilla/5.0 (X11; Linux x86_64) AppleWebKit/537.36 (KHTML, like Gecko) draw.io/24.5.3 Chrome/124.0.6367.207 Electron/30.0.6 Safari/537.36" etag="rQZpItdyhmfZCYm5C-f2" version="24.5.3" type="device">
  <diagram name="Page-1" id="05giQ5dHp-KMbylBPVtb">
    <mxGraphModel dx="1017" dy="703" grid="1" gridSize="10" guides="1" tooltips="1" connect="1" arrows="1" fold="1" page="1" pageScale="1" pageWidth="850" pageHeight="1100" math="0" shadow="0">
      <root>
        <mxCell id="0" />
        <mxCell id="1" parent="0" />
        <mxCell id="afL4xewgiDonar-3TJ5b-16" value="Flow" style="swimlane;whiteSpace=wrap;html=1;fontFamily=Helvetica;fontSize=11;labelBackgroundColor=default;" vertex="1" parent="1">
          <mxGeometry x="180" y="450" width="650" height="340" as="geometry" />
        </mxCell>
        <mxCell id="afL4xewgiDonar-3TJ5b-5" value="USER" style="image;aspect=fixed;perimeter=ellipsePerimeter;html=1;align=center;shadow=0;dashed=0;spacingTop=3;image=img/lib/active_directory/laptop_client.svg;" vertex="1" parent="afL4xewgiDonar-3TJ5b-16">
          <mxGeometry x="30" y="185.32" width="45" height="50" as="geometry" />
        </mxCell>
        <mxCell id="afL4xewgiDonar-3TJ5b-26" style="edgeStyle=none;rounded=0;orthogonalLoop=1;jettySize=auto;html=1;strokeColor=default;align=center;verticalAlign=middle;fontFamily=Helvetica;fontSize=11;fontColor=default;labelBackgroundColor=default;endArrow=classic;" edge="1" parent="afL4xewgiDonar-3TJ5b-16" source="afL4xewgiDonar-3TJ5b-6">
          <mxGeometry relative="1" as="geometry">
            <mxPoint x="545" y="140" as="targetPoint" />
          </mxGeometry>
        </mxCell>
        <mxCell id="afL4xewgiDonar-3TJ5b-6" value="POSTGRESQL&lt;div&gt;DATABASE&lt;/div&gt;" style="image;aspect=fixed;perimeter=ellipsePerimeter;html=1;align=center;shadow=0;dashed=0;spacingTop=3;image=img/lib/active_directory/databases.svg;" vertex="1" parent="afL4xewgiDonar-3TJ5b-16">
          <mxGeometry x="520" y="190" width="50" height="49" as="geometry" />
        </mxCell>
        <mxCell id="afL4xewgiDonar-3TJ5b-8" style="rounded=0;orthogonalLoop=1;jettySize=auto;html=1;" edge="1" parent="afL4xewgiDonar-3TJ5b-16" source="afL4xewgiDonar-3TJ5b-5">
          <mxGeometry relative="1" as="geometry">
            <mxPoint x="140" y="210" as="targetPoint" />
            <Array as="points">
              <mxPoint x="110" y="210" />
            </Array>
          </mxGeometry>
        </mxCell>
        <mxCell id="afL4xewgiDonar-3TJ5b-15" style="edgeStyle=none;rounded=0;orthogonalLoop=1;jettySize=auto;html=1;strokeColor=default;align=center;verticalAlign=middle;fontFamily=Helvetica;fontSize=11;fontColor=default;labelBackgroundColor=default;endArrow=classic;entryX=-0.073;entryY=0.109;entryDx=0;entryDy=0;entryPerimeter=0;" edge="1" parent="afL4xewgiDonar-3TJ5b-16" source="afL4xewgiDonar-3TJ5b-14" target="afL4xewgiDonar-3TJ5b-6">
          <mxGeometry relative="1" as="geometry">
            <mxPoint x="520" y="240" as="targetPoint" />
          </mxGeometry>
        </mxCell>
        <mxCell id="afL4xewgiDonar-3TJ5b-29" style="edgeStyle=none;rounded=0;orthogonalLoop=1;jettySize=auto;html=1;strokeColor=default;align=center;verticalAlign=middle;fontFamily=Helvetica;fontSize=11;fontColor=default;labelBackgroundColor=default;endArrow=classic;" edge="1" parent="afL4xewgiDonar-3TJ5b-16" source="afL4xewgiDonar-3TJ5b-14">
          <mxGeometry relative="1" as="geometry">
            <mxPoint x="510" y="90" as="targetPoint" />
          </mxGeometry>
        </mxCell>
        <mxCell id="afL4xewgiDonar-3TJ5b-14" value="ADMIN" style="image;aspect=fixed;perimeter=ellipsePerimeter;html=1;align=center;shadow=0;dashed=0;spacingTop=3;image=img/lib/active_directory/user.svg;fontFamily=Helvetica;fontSize=11;fontColor=default;labelBackgroundColor=default;" vertex="1" parent="afL4xewgiDonar-3TJ5b-16">
          <mxGeometry x="400" y="97" width="18.5" height="50" as="geometry" />
        </mxCell>
        <mxCell id="afL4xewgiDonar-3TJ5b-19" value="AUDIT&lt;div&gt;STORAGE&lt;/div&gt;" style="image;aspect=fixed;perimeter=ellipsePerimeter;html=1;align=center;shadow=0;dashed=0;spacingTop=3;image=img/lib/active_directory/hard_disk.svg;fontFamily=Helvetica;fontSize=11;fontColor=default;labelBackgroundColor=default;" vertex="1" parent="afL4xewgiDonar-3TJ5b-16">
          <mxGeometry x="520" y="70" width="50" height="27" as="geometry" />
        </mxCell>
        <mxCell id="afL4xewgiDonar-3TJ5b-34" style="edgeStyle=none;rounded=0;orthogonalLoop=1;jettySize=auto;html=1;strokeColor=default;align=center;verticalAlign=middle;fontFamily=Helvetica;fontSize=11;fontColor=default;labelBackgroundColor=default;endArrow=classic;" edge="1" parent="afL4xewgiDonar-3TJ5b-16" source="afL4xewgiDonar-3TJ5b-22">
          <mxGeometry relative="1" as="geometry">
            <mxPoint x="280" y="210" as="targetPoint" />
          </mxGeometry>
        </mxCell>
        <mxCell id="afL4xewgiDonar-3TJ5b-22" value="APPLICATION" style="image;aspect=fixed;perimeter=ellipsePerimeter;html=1;align=center;shadow=0;dashed=0;spacingTop=3;image=img/lib/active_directory/generic_server.svg;fontFamily=Helvetica;fontSize=11;fontColor=default;labelBackgroundColor=default;" vertex="1" parent="afL4xewgiDonar-3TJ5b-16">
          <mxGeometry x="150" y="170.64" width="44.44" height="79.36" as="geometry" />
        </mxCell>
        <mxCell id="afL4xewgiDonar-3TJ5b-27" style="edgeStyle=none;rounded=0;orthogonalLoop=1;jettySize=auto;html=1;strokeColor=default;align=center;verticalAlign=middle;fontFamily=Helvetica;fontSize=11;fontColor=default;labelBackgroundColor=default;endArrow=classic;" edge="1" parent="afL4xewgiDonar-3TJ5b-16" source="afL4xewgiDonar-3TJ5b-24">
          <mxGeometry relative="1" as="geometry">
            <mxPoint x="510" y="215" as="targetPoint" />
          </mxGeometry>
        </mxCell>
        <mxCell id="afL4xewgiDonar-3TJ5b-24" value="DATABASE&lt;div&gt;SERVER&lt;/div&gt;" style="image;aspect=fixed;perimeter=ellipsePerimeter;html=1;align=center;shadow=0;dashed=0;spacingTop=3;image=img/lib/active_directory/database_server.svg;fontFamily=Helvetica;fontSize=11;fontColor=default;labelBackgroundColor=default;" vertex="1" parent="afL4xewgiDonar-3TJ5b-16">
          <mxGeometry x="293.42" y="170.64" width="65.08" height="79.36" as="geometry" />
        </mxCell>
      </root>
    </mxGraphModel>
  </diagram>
</mxfile>
